REM GoldWave
FILE "Зазнобин В.М. Азербайджан. Пушкин. Динамическое программирование (30 июня 2011 г.).m4a" BINARY
  TRACK 01 AUDIO
    TITLE "00:00:00.00000"
    PERFORMER "Владимир Михайлович Зазнобин. Видеоархив"
    INDEX 01 00:00:00
  TRACK 02 AUDIO
    TITLE "00:00:14.30481"
    PERFORMER "Владимир Михайлович Зазнобин. Видеоархив"
    INDEX 01 00:14:23
  TRACK 03 AUDIO
    TITLE "00:00:28.29057"
    PERFORMER "Владимир Михайлович Зазнобин. Видеоархив"
    INDEX 01 00:28:22
  TRACK 04 AUDIO
    TITLE "00:00:42.63254"
    PERFORMER "Владимир Михайлович Зазнобин. Видеоархив"
    INDEX 01 00:42:47
  TRACK 05 AUDIO
    TITLE "00:00:56.58116"
    PERFORMER "Владимир Михайлович Зазнобин. Видеоархив"
    INDEX 01 00:56:44
  TRACK 06 AUDIO
    TITLE "00:01:12.69898"
    PERFORMER "Владимир Михайлович Зазнобин. Видеоархив"
    INDEX 01 01:12:52
  TRACK 07 AUDIO
    TITLE "00:01:26.00766"
    PERFORMER "Владимир Михайлович Зазнобин. Видеоархив"
    INDEX 01 01:26:01
  TRACK 08 AUDIO
    TITLE "00:01:39.29916"
    PERFORMER "Владимир Михайлович Зазнобин. Видеоархив"
    INDEX 01 01:39:22
  TRACK 09 AUDIO
    TITLE "00:01:54.57224"
    PERFORMER "Владимир Михайлович Зазнобин. Видеоархив"
    INDEX 01 01:54:43
  TRACK 10 AUDIO
    TITLE "00:02:10.01528"
    PERFORMER "Владимир Михайлович Зазнобин. Видеоархив"
    INDEX 01 02:10:01
  TRACK 11 AUDIO
    TITLE "00:02:24.02753"
    PERFORMER "Владимир Михайлович Зазнобин. Видеоархив"
    INDEX 01 02:24:02
  TRACK 12 AUDIO
    TITLE "00:02:38.60029"
    PERFORMER "Владимир Михайлович Зазнобин. Видеоархив"
    INDEX 01 02:38:45
  TRACK 13 AUDIO
    TITLE "00:02:52.64737"
    PERFORMER "Владимир Михайлович Зазнобин. Видеоархив"
    INDEX 01 02:52:49
  TRACK 14 AUDIO
    TITLE "00:03:09.02667"
    PERFORMER "Владимир Михайлович Зазнобин. Видеоархив"
    INDEX 01 03:09:02
  TRACK 15 AUDIO
    TITLE "00:03:25.25036"
    PERFORMER "Владимир Михайлович Зазнобин. Видеоархив"
    INDEX 01 03:25:19
  TRACK 16 AUDIO
    TITLE "00:03:38.58320"
    PERFORMER "Владимир Михайлович Зазнобин. Видеоархив"
    INDEX 01 03:38:44
  TRACK 17 AUDIO
    TITLE "00:03:52.21324"
    PERFORMER "Владимир Михайлович Зазнобин. Видеоархив"
    INDEX 01 03:52:16
  TRACK 18 AUDIO
    TITLE "00:04:07.22533"
    PERFORMER "Владимир Михайлович Зазнобин. Видеоархив"
    INDEX 01 04:07:17
  TRACK 19 AUDIO
    TITLE "00:04:21.86544"
    PERFORMER "Владимир Михайлович Зазнобин. Видеоархив"
    INDEX 01 04:21:65
  TRACK 20 AUDIO
    TITLE "00:04:37.82397"
    PERFORMER "Владимир Михайлович Зазнобин. Видеоархив"
    INDEX 01 04:37:62
  TRACK 21 AUDIO
    TITLE "00:04:52.58621"
    PERFORMER "Владимир Михайлович Зазнобин. Видеоархив"
    INDEX 01 04:52:44
  TRACK 22 AUDIO
    TITLE "00:05:07.78175"
    PERFORMER "Владимир Михайлович Зазнобин. Видеоархив"
    INDEX 01 05:07:59
  TRACK 23 AUDIO
    TITLE "00:05:22.29415"
    PERFORMER "Владимир Михайлович Зазнобин. Видеоархив"
    INDEX 01 05:22:22
  TRACK 24 AUDIO
    TITLE "00:05:36.66490"
    PERFORMER "Владимир Михайлович Зазнобин. Видеоархив"
    INDEX 01 05:36:50
  TRACK 25 AUDIO
    TITLE "00:05:51.91152"
    PERFORMER "Владимир Михайлович Зазнобин. Видеоархив"
    INDEX 01 05:51:68
  TRACK 26 AUDIO
    TITLE "00:06:06.00968"
    PERFORMER "Владимир Михайлович Зазнобин. Видеоархив"
    INDEX 01 06:06:01
  TRACK 27 AUDIO
    TITLE "00:06:21.75830"
    PERFORMER "Владимир Михайлович Зазнобин. Видеоархив"
    INDEX 01 06:21:57
  TRACK 28 AUDIO
    TITLE "00:06:36.32086"
    PERFORMER "Владимир Михайлович Зазнобин. Видеоархив"
    INDEX 01 06:36:24
  TRACK 29 AUDIO
    TITLE "00:06:51.51871"
    PERFORMER "Владимир Михайлович Зазнобин. Видеоархив"
    INDEX 01 06:51:39
  TRACK 30 AUDIO
    TITLE "00:07:06.32787"
    PERFORMER "Владимир Михайлович Зазнобин. Видеоархив"
    INDEX 01 07:06:25
  TRACK 31 AUDIO
    TITLE "00:07:20.64057"
    PERFORMER "Владимир Михайлович Зазнобин. Видеоархив"
    INDEX 01 07:20:48
  TRACK 32 AUDIO
    TITLE "00:07:36.41288"
    PERFORMER "Владимир Михайлович Зазнобин. Видеоархив"
    INDEX 01 07:36:31
  TRACK 33 AUDIO
    TITLE "00:07:51.46957"
    PERFORMER "Владимир Михайлович Зазнобин. Видеоархив"
    INDEX 01 07:51:35
  TRACK 34 AUDIO
    TITLE "00:08:04.78474"
    PERFORMER "Владимир Михайлович Зазнобин. Видеоархив"
    INDEX 01 08:04:59
  TRACK 35 AUDIO
    TITLE "00:08:20.90721"
    PERFORMER "Владимир Михайлович Зазнобин. Видеоархив"
    INDEX 01 08:20:68
  TRACK 36 AUDIO
    TITLE "00:08:36.69345"
    PERFORMER "Владимир Михайлович Зазнобин. Видеоархив"
    INDEX 01 08:36:52
  TRACK 37 AUDIO
    TITLE "00:08:50.32721"
    PERFORMER "Владимир Михайлович Зазнобин. Видеоархив"
    INDEX 01 08:50:25
  TRACK 38 AUDIO
    TITLE "00:09:05.38435"
    PERFORMER "Владимир Михайлович Зазнобин. Видеоархив"
    INDEX 01 09:05:29
  TRACK 39 AUDIO
    TITLE "00:09:22.21782"
    PERFORMER "Владимир Михайлович Зазнобин. Видеоархив"
    INDEX 01 09:22:16
  TRACK 40 AUDIO
    TITLE "00:09:35.34073"
    PERFORMER "Владимир Михайлович Зазнобин. Видеоархив"
    INDEX 01 09:35:26
  TRACK 41 AUDIO
    TITLE "00:09:49.26288"
    PERFORMER "Владимир Михайлович Зазнобин. Видеоархив"
    INDEX 01 09:49:20
  TRACK 42 AUDIO
    TITLE "00:10:04.29540"
    PERFORMER "Владимир Михайлович Зазнобин. Видеоархив"
    INDEX 01 10:04:22
  TRACK 43 AUDIO
    TITLE "00:10:21.69544"
    PERFORMER "Владимир Михайлович Зазнобин. Видеоархив"
    INDEX 01 10:21:52
  TRACK 44 AUDIO
    TITLE "00:10:36.83941"
    PERFORMER "Владимир Михайлович Зазнобин. Видеоархив"
    INDEX 01 10:36:63
  TRACK 45 AUDIO
    TITLE "00:10:50.01807"
    PERFORMER "Владимир Михайлович Зазнобин. Видеоархив"
    INDEX 01 10:50:01
  TRACK 46 AUDIO
    TITLE "00:11:03.88029"
    PERFORMER "Владимир Михайлович Зазнобин. Видеоархив"
    INDEX 01 11:03:66
  TRACK 47 AUDIO
    TITLE "00:11:20.77646"
    PERFORMER "Владимир Михайлович Зазнобин. Видеоархив"
    INDEX 01 11:20:58
  TRACK 48 AUDIO
    TITLE "00:11:36.44753"
    PERFORMER "Владимир Михайлович Зазнобин. Видеоархив"
    INDEX 01 11:36:34
  TRACK 49 AUDIO
    TITLE "00:11:52.54075"
    PERFORMER "Владимир Михайлович Зазнобин. Видеоархив"
    INDEX 01 11:52:41
  TRACK 50 AUDIO
    TITLE "00:12:07.36893"
    PERFORMER "Владимир Михайлович Зазнобин. Видеоархив"
    INDEX 01 12:07:28
  TRACK 51 AUDIO
    TITLE "00:12:21.40116"
    PERFORMER "Владимир Михайлович Зазнобин. Видеоархив"
    INDEX 01 12:21:30
  TRACK 52 AUDIO
    TITLE "00:12:38.35304"
    PERFORMER "Владимир Михайлович Зазнобин. Видеоархив"
    INDEX 01 12:38:26
  TRACK 53 AUDIO
    TITLE "00:12:52.64578"
    PERFORMER "Владимир Михайлович Зазнобин. Видеоархив"
    INDEX 01 12:52:48
  TRACK 54 AUDIO
    TITLE "00:13:07.85293"
    PERFORMER "Владимир Михайлович Зазнобин. Видеоархив"
    INDEX 01 13:07:64
  TRACK 55 AUDIO
    TITLE "00:13:22.47723"
    PERFORMER "Владимир Михайлович Зазнобин. Видеоархив"
    INDEX 01 13:22:36
  TRACK 56 AUDIO
    TITLE "00:13:36.04551"
    PERFORMER "Владимир Михайлович Зазнобин. Видеоархив"
    INDEX 01 13:36:03
  TRACK 57 AUDIO
    TITLE "00:13:50.13995"
    PERFORMER "Владимир Михайлович Зазнобин. Видеоархив"
    INDEX 01 13:50:10
  TRACK 58 AUDIO
    TITLE "00:14:05.75576"
    PERFORMER "Владимир Михайлович Зазнобин. Видеоархив"
    INDEX 01 14:05:57
  TRACK 59 AUDIO
    TITLE "00:14:21.71803"
    PERFORMER "Владимир Михайлович Зазнобин. Видеоархив"
    INDEX 01 14:21:54
  TRACK 60 AUDIO
    TITLE "00:14:35.51850"
    PERFORMER "Владимир Михайлович Зазнобин. Видеоархив"
    INDEX 01 14:35:39
  TRACK 61 AUDIO
    TITLE "00:14:50.54823"
    PERFORMER "Владимир Михайлович Зазнобин. Видеоархив"
    INDEX 01 14:50:41
  TRACK 62 AUDIO
    TITLE "00:15:07.51451"
    PERFORMER "Владимир Михайлович Зазнобин. Видеоархив"
    INDEX 01 15:07:39
  TRACK 63 AUDIO
    TITLE "00:15:24.15526"
    PERFORMER "Владимир Михайлович Зазнобин. Видеоархив"
    INDEX 01 15:24:12
  TRACK 64 AUDIO
    TITLE "00:15:42.05220"
    PERFORMER "Владимир Михайлович Зазнобин. Видеоархив"
    INDEX 01 15:42:04
  TRACK 65 AUDIO
    TITLE "00:15:55.85871"
    PERFORMER "Владимир Михайлович Зазнобин. Видеоархив"
    INDEX 01 15:55:64
  TRACK 66 AUDIO
    TITLE "00:16:12.35456"
    PERFORMER "Владимир Михайлович Зазнобин. Видеоархив"
    INDEX 01 16:12:27
  TRACK 67 AUDIO
    TITLE "00:16:25.37624"
    PERFORMER "Владимир Михайлович Зазнобин. Видеоархив"
    INDEX 01 16:25:28
  TRACK 68 AUDIO
    TITLE "00:16:40.81279"
    PERFORMER "Владимир Михайлович Зазнобин. Видеоархив"
    INDEX 01 16:40:61
  TRACK 69 AUDIO
    TITLE "00:17:00.26175"
    PERFORMER "Владимир Михайлович Зазнобин. Видеоархив"
    INDEX 01 17:00:20
  TRACK 70 AUDIO
    TITLE "00:17:14.44163"
    PERFORMER "Владимир Михайлович Зазнобин. Видеоархив"
    INDEX 01 17:14:33
  TRACK 71 AUDIO
    TITLE "00:17:29.77045"
    PERFORMER "Владимир Михайлович Зазнобин. Видеоархив"
    INDEX 01 17:29:58
  TRACK 72 AUDIO
    TITLE "00:17:44.26009"
    PERFORMER "Владимир Михайлович Зазнобин. Видеоархив"
    INDEX 01 17:44:20
  TRACK 73 AUDIO
    TITLE "00:17:59.10222"
    PERFORMER "Владимир Михайлович Зазнобин. Видеоархив"
    INDEX 01 17:59:08
  TRACK 74 AUDIO
    TITLE "00:18:13.63785"
    PERFORMER "Владимир Михайлович Зазнобин. Видеоархив"
    INDEX 01 18:13:48
  TRACK 75 AUDIO
    TITLE "00:18:26.87406"
    PERFORMER "Владимир Михайлович Зазнобин. Видеоархив"
    INDEX 01 18:26:66
  TRACK 76 AUDIO
    TITLE "00:18:40.63646"
    PERFORMER "Владимир Михайлович Зазнобин. Видеоархив"
    INDEX 01 18:40:48
  TRACK 77 AUDIO
    TITLE "00:18:58.18510"
    PERFORMER "Владимир Михайлович Зазнобин. Видеоархив"
    INDEX 01 18:58:14
  TRACK 78 AUDIO
    TITLE "00:19:11.81050"
    PERFORMER "Владимир Михайлович Зазнобин. Видеоархив"
    INDEX 01 19:11:61
  TRACK 79 AUDIO
    TITLE "00:19:26.72367"
    PERFORMER "Владимир Михайлович Зазнобин. Видеоархив"
    INDEX 01 19:26:54
  TRACK 80 AUDIO
    TITLE "00:19:40.06950"
    PERFORMER "Владимир Михайлович Зазнобин. Видеоархив"
    INDEX 01 19:40:05
  TRACK 81 AUDIO
    TITLE "00:19:54.37200"
    PERFORMER "Владимир Михайлович Зазнобин. Видеоархив"
    INDEX 01 19:54:28
  TRACK 82 AUDIO
    TITLE "00:20:07.50605"
    PERFORMER "Владимир Михайлович Зазнобин. Видеоархив"
    INDEX 01 20:07:38
  TRACK 83 AUDIO
    TITLE "00:20:22.22420"
    PERFORMER "Владимир Михайлович Зазнобин. Видеоархив"
    INDEX 01 20:22:17
  TRACK 84 AUDIO
    TITLE "00:20:36.29215"
    PERFORMER "Владимир Михайлович Зазнобин. Видеоархив"
    INDEX 01 20:36:22
  TRACK 85 AUDIO
    TITLE "00:20:51.35673"
    PERFORMER "Владимир Михайлович Зазнобин. Видеоархив"
    INDEX 01 20:51:27
  TRACK 86 AUDIO
    TITLE "00:21:05.87794"
    PERFORMER "Владимир Михайлович Зазнобин. Видеоархив"
    INDEX 01 21:05:66
  TRACK 87 AUDIO
    TITLE "00:21:21.99113"
    PERFORMER "Владимир Михайлович Зазнобин. Видеоархив"
    INDEX 01 21:21:74
  TRACK 88 AUDIO
    TITLE "00:21:39.55045"
    PERFORMER "Владимир Михайлович Зазнобин. Видеоархив"
    INDEX 01 21:39:41
  TRACK 89 AUDIO
    TITLE "00:21:53.22043"
    PERFORMER "Владимир Михайлович Зазнобин. Видеоархив"
    INDEX 01 21:53:17
  TRACK 90 AUDIO
    TITLE "00:22:06.73066"
    PERFORMER "Владимир Михайлович Зазнобин. Видеоархив"
    INDEX 01 22:06:55
  TRACK 91 AUDIO
    TITLE "00:22:19.90698"
    PERFORMER "Владимир Михайлович Зазнобин. Видеоархив"
    INDEX 01 22:19:68
  TRACK 92 AUDIO
    TITLE "00:22:34.59630"
    PERFORMER "Владимир Михайлович Зазнобин. Видеоархив"
    INDEX 01 22:34:45
  TRACK 93 AUDIO
    TITLE "00:22:49.12451"
    PERFORMER "Владимир Михайлович Зазнобин. Видеоархив"
    INDEX 01 22:49:09
  TRACK 94 AUDIO
    TITLE "00:23:04.48073"
    PERFORMER "Владимир Михайлович Зазнобин. Видеоархив"
    INDEX 01 23:04:36
  TRACK 95 AUDIO
    TITLE "00:23:21.78832"
    PERFORMER "Владимир Михайлович Зазнобин. Видеоархив"
    INDEX 01 23:21:59
  TRACK 96 AUDIO
    TITLE "00:23:35.76993"
    PERFORMER "Владимир Михайлович Зазнобин. Видеоархив"
    INDEX 01 23:35:58
  TRACK 97 AUDIO
    TITLE "00:23:49.86807"
    PERFORMER "Владимир Михайлович Зазнобин. Видеоархив"
    INDEX 01 23:49:65
  TRACK 98 AUDIO
    TITLE "00:24:04.54859"
    PERFORMER "Владимир Михайлович Зазнобин. Видеоархив"
    INDEX 01 24:04:41
  TRACK 99 AUDIO
    TITLE "00:24:18.26036"
    PERFORMER "Владимир Михайлович Зазнобин. Видеоархив"
    INDEX 01 24:18:20
  TRACK 100 AUDIO
    TITLE "00:24:33.43129"
    PERFORMER "Владимир Михайлович Зазнобин. Видеоархив"
    INDEX 01 24:33:32
  TRACK 101 AUDIO
    TITLE "00:24:46.56349"
    PERFORMER "Владимир Михайлович Зазнобин. Видеоархив"
    INDEX 01 24:46:42
  TRACK 102 AUDIO
    TITLE "00:24:59.77975"
    PERFORMER "Владимир Михайлович Зазнобин. Видеоархив"
    INDEX 01 24:59:58
  TRACK 103 AUDIO
    TITLE "00:25:13.88766"
    PERFORMER "Владимир Михайлович Зазнобин. Видеоархив"
    INDEX 01 25:13:67
  TRACK 104 AUDIO
    TITLE "00:25:27.08580"
    PERFORMER "Владимир Михайлович Зазнобин. Видеоархив"
    INDEX 01 25:27:06
  TRACK 105 AUDIO
    TITLE "00:25:42.18891"
    PERFORMER "Владимир Михайлович Зазнобин. Видеоархив"
    INDEX 01 25:42:14
  TRACK 106 AUDIO
    TITLE "00:25:55.70565"
    PERFORMER "Владимир Михайлович Зазнобин. Видеоархив"
    INDEX 01 25:55:53
  TRACK 107 AUDIO
    TITLE "00:26:10.83290"
    PERFORMER "Владимир Михайлович Зазнобин. Видеоархив"
    INDEX 01 26:10:62
  TRACK 108 AUDIO
    TITLE "00:26:26.64283"
    PERFORMER "Владимир Михайлович Зазнобин. Видеоархив"
    INDEX 01 26:26:48
  TRACK 109 AUDIO
    TITLE "00:26:40.46980"
    PERFORMER "Владимир Михайлович Зазнобин. Видеоархив"
    INDEX 01 26:40:35
  TRACK 110 AUDIO
    TITLE "00:26:55.78698"
    PERFORMER "Владимир Михайлович Зазнобин. Видеоархив"
    INDEX 01 26:55:59
  TRACK 111 AUDIO
    TITLE "00:27:09.23730"
    PERFORMER "Владимир Михайлович Зазнобин. Видеоархив"
    INDEX 01 27:09:18
  TRACK 112 AUDIO
    TITLE "00:27:25.49957"
    PERFORMER "Владимир Михайлович Зазнобин. Видеоархив"
    INDEX 01 27:25:37
  TRACK 113 AUDIO
    TITLE "00:27:38.98472"
    PERFORMER "Владимир Михайлович Зазнобин. Видеоархив"
    INDEX 01 27:38:74
  TRACK 114 AUDIO
    TITLE "00:27:52.51304"
    PERFORMER "Владимир Михайлович Зазнобин. Видеоархив"
    INDEX 01 27:52:38
  TRACK 115 AUDIO
    TITLE "00:28:07.40392"
    PERFORMER "Владимир Михайлович Зазнобин. Видеоархив"
    INDEX 01 28:07:30
  TRACK 116 AUDIO
    TITLE "00:28:23.06805"
    PERFORMER "Владимир Михайлович Зазнобин. Видеоархив"
    INDEX 01 28:23:05
  TRACK 117 AUDIO
    TITLE "00:28:41.72846"
    PERFORMER "Владимир Михайлович Зазнобин. Видеоархив"
    INDEX 01 28:41:55
  TRACK 118 AUDIO
    TITLE "00:28:56.09689"
    PERFORMER "Владимир Михайлович Зазнобин. Видеоархив"
    INDEX 01 28:56:07
  TRACK 119 AUDIO
    TITLE "00:29:11.37741"
    PERFORMER "Владимир Михайлович Зазнобин. Видеоархив"
    INDEX 01 29:11:28
  TRACK 120 AUDIO
    TITLE "00:29:26.00404"
    PERFORMER "Владимир Михайлович Зазнобин. Видеоархив"
    INDEX 01 29:26:00
  TRACK 121 AUDIO
    TITLE "00:29:41.62590"
    PERFORMER "Владимир Михайлович Зазнобин. Видеоархив"
    INDEX 01 29:41:47
  TRACK 122 AUDIO
    TITLE "00:29:54.87746"
    PERFORMER "Владимир Михайлович Зазнобин. Видеоархив"
    INDEX 01 29:54:66
  TRACK 123 AUDIO
    TITLE "00:30:07.97204"
    PERFORMER "Владимир Михайлович Зазнобин. Видеоархив"
    INDEX 01 30:07:73
  TRACK 124 AUDIO
    TITLE "00:30:22.21508"
    PERFORMER "Владимир Михайлович Зазнобин. Видеоархив"
    INDEX 01 30:22:16
  TRACK 125 AUDIO
    TITLE "00:30:35.70721"
    PERFORMER "Владимир Михайлович Зазнобин. Видеоархив"
    INDEX 01 30:35:53
  TRACK 126 AUDIO
    TITLE "00:30:49.68229"
    PERFORMER "Владимир Михайлович Зазнобин. Видеоархив"
    INDEX 01 30:49:51
  TRACK 127 AUDIO
    TITLE "00:31:02.77873"
    PERFORMER "Владимир Михайлович Зазнобин. Видеоархив"
    INDEX 01 31:02:58
  TRACK 128 AUDIO
    TITLE "00:31:16.72317"
    PERFORMER "Владимир Михайлович Зазнобин. Видеоархив"
    INDEX 01 31:16:54
  TRACK 129 AUDIO
    TITLE "00:31:30.29283"
    PERFORMER "Владимир Михайлович Зазнобин. Видеоархив"
    INDEX 01 31:30:22
  TRACK 130 AUDIO
    TITLE "00:31:45.77583"
    PERFORMER "Владимир Михайлович Зазнобин. Видеоархив"
    INDEX 01 31:45:58
  TRACK 131 AUDIO
    TITLE "00:32:01.45805"
    PERFORMER "Владимир Михайлович Зазнобин. Видеоархив"
    INDEX 01 32:01:34
  TRACK 132 AUDIO
    TITLE "00:32:14.60327"
    PERFORMER "Владимир Михайлович Зазнобин. Видеоархив"
    INDEX 01 32:14:45
  TRACK 133 AUDIO
    TITLE "00:32:28.22680"
    PERFORMER "Владимир Михайлович Зазнобин. Видеоархив"
    INDEX 01 32:28:17
  TRACK 134 AUDIO
    TITLE "00:32:42.67234"
    PERFORMER "Владимир Михайлович Зазнобин. Видеоархив"
    INDEX 01 32:42:50
  TRACK 135 AUDIO
    TITLE "00:32:58.92297"
    PERFORMER "Владимир Михайлович Зазнобин. Видеоархив"
    INDEX 01 32:58:69
  TRACK 136 AUDIO
    TITLE "00:33:12.50379"
    PERFORMER "Владимир Михайлович Зазнобин. Видеоархив"
    INDEX 01 33:12:38
  TRACK 137 AUDIO
    TITLE "00:33:26.83322"
    PERFORMER "Владимир Михайлович Зазнобин. Видеоархив"
    INDEX 01 33:26:62
  TRACK 138 AUDIO
    TITLE "00:33:42.81311"
    PERFORMER "Владимир Михайлович Зазнобин. Видеоархив"
    INDEX 01 33:42:61
  TRACK 139 AUDIO
    TITLE "00:33:58.07088"
    PERFORMER "Владимир Михайлович Зазнобин. Видеоархив"
    INDEX 01 33:58:05
  TRACK 140 AUDIO
    TITLE "00:34:11.77336"
    PERFORMER "Владимир Михайлович Зазнобин. Видеоархив"
    INDEX 01 34:11:58
  TRACK 141 AUDIO
    TITLE "00:34:25.84551"
    PERFORMER "Владимир Михайлович Зазнобин. Видеоархив"
    INDEX 01 34:25:63
  TRACK 142 AUDIO
    TITLE "00:34:39.84057"
    PERFORMER "Владимир Михайлович Зазнобин. Видеоархив"
    INDEX 01 34:39:63
  TRACK 143 AUDIO
    TITLE "00:34:53.79522"
    PERFORMER "Владимир Михайлович Зазнобин. Видеоархив"
    INDEX 01 34:53:60
  TRACK 144 AUDIO
    TITLE "00:35:09.40036"
    PERFORMER "Владимир Михайлович Зазнобин. Видеоархив"
    INDEX 01 35:09:30
  TRACK 145 AUDIO
    TITLE "00:35:28.60923"
    PERFORMER "Владимир Михайлович Зазнобин. Видеоархив"
    INDEX 01 35:28:46
  TRACK 146 AUDIO
    TITLE "00:35:42.22998"
    PERFORMER "Владимир Михайлович Зазнобин. Видеоархив"
    INDEX 01 35:42:17
  TRACK 147 AUDIO
    TITLE "00:35:55.51914"
    PERFORMER "Владимир Михайлович Зазнобин. Видеоархив"
    INDEX 01 35:55:39
  TRACK 148 AUDIO
    TITLE "00:36:10.35476"
    PERFORMER "Владимир Михайлович Зазнобин. Видеоархив"
    INDEX 01 36:10:27
  TRACK 149 AUDIO
    TITLE "00:36:26.95417"
    PERFORMER "Владимир Михайлович Зазнобин. Видеоархив"
    INDEX 01 36:26:72
  TRACK 150 AUDIO
    TITLE "00:36:40.93576"
    PERFORMER "Владимир Михайлович Зазнобин. Видеоархив"
    INDEX 01 36:40:70
  TRACK 151 AUDIO
    TITLE "00:36:57.08658"
    PERFORMER "Владимир Михайлович Зазнобин. Видеоархив"
    INDEX 01 36:57:06
  TRACK 152 AUDIO
    TITLE "00:37:10.51041"
    PERFORMER "Владимир Михайлович Зазнобин. Видеоархив"
    INDEX 01 37:10:38
  TRACK 153 AUDIO
    TITLE "00:37:23.62265"
    PERFORMER "Владимир Михайлович Зазнобин. Видеоархив"
    INDEX 01 37:23:47
  TRACK 154 AUDIO
    TITLE "00:37:36.57791"
    PERFORMER "Владимир Михайлович Зазнобин. Видеоархив"
    INDEX 01 37:36:43
  TRACK 155 AUDIO
    TITLE "00:37:50.00456"
    PERFORMER "Владимир Михайлович Зазнобин. Видеоархив"
    INDEX 01 37:50:00
  TRACK 156 AUDIO
    TITLE "00:38:07.48819"
    PERFORMER "Владимир Михайлович Зазнобин. Видеоархив"
    INDEX 01 38:07:37
  TRACK 157 AUDIO
    TITLE "00:38:22.27737"
    PERFORMER "Владимир Михайлович Зазнобин. Видеоархив"
    INDEX 01 38:22:21
  TRACK 158 AUDIO
    TITLE "00:38:35.65941"
    PERFORMER "Владимир Михайлович Зазнобин. Видеоархив"
    INDEX 01 38:35:49
  TRACK 159 AUDIO
    TITLE "00:38:50.03481"
    PERFORMER "Владимир Михайлович Зазнобин. Видеоархив"
    INDEX 01 38:50:03
  TRACK 160 AUDIO
    TITLE "00:39:05.44955"
    PERFORMER "Владимир Михайлович Зазнобин. Видеоархив"
    INDEX 01 39:05:34
  TRACK 161 AUDIO
    TITLE "00:39:22.41769"
    PERFORMER "Владимир Михайлович Зазнобин. Видеоархив"
    INDEX 01 39:22:31
  TRACK 162 AUDIO
    TITLE "00:39:36.72481"
    PERFORMER "Владимир Михайлович Зазнобин. Видеоархив"
    INDEX 01 39:36:54
  TRACK 163 AUDIO
    TITLE "00:39:53.84621"
    PERFORMER "Владимир Михайлович Зазнобин. Видеоархив"
    INDEX 01 39:53:63
  TRACK 164 AUDIO
    TITLE "00:40:08.69531"
    PERFORMER "Владимир Михайлович Зазнобин. Видеоархив"
    INDEX 01 40:08:52
  TRACK 165 AUDIO
    TITLE "00:40:26.47243"
    PERFORMER "Владимир Михайлович Зазнобин. Видеоархив"
    INDEX 01 40:26:35
  TRACK 166 AUDIO
    TITLE "00:40:44.34011"
    PERFORMER "Владимир Михайлович Зазнобин. Видеоархив"
    INDEX 01 40:44:26
  TRACK 167 AUDIO
    TITLE "00:40:59.83703"
    PERFORMER "Владимир Михайлович Зазнобин. Видеоархив"
    INDEX 01 40:59:63
  TRACK 168 AUDIO
    TITLE "00:41:15.56569"
    PERFORMER "Владимир Михайлович Зазнобин. Видеоархив"
    INDEX 01 41:15:42
  TRACK 169 AUDIO
    TITLE "00:41:33.26247"
    PERFORMER "Владимир Михайлович Зазнобин. Видеоархив"
    INDEX 01 41:33:20
  TRACK 170 AUDIO
    TITLE "00:41:47.24732"
    PERFORMER "Владимир Михайлович Зазнобин. Видеоархив"
    INDEX 01 41:47:19
  TRACK 171 AUDIO
    TITLE "00:42:03.19610"
    PERFORMER "Владимир Михайлович Зазнобин. Видеоархив"
    INDEX 01 42:03:15
  TRACK 172 AUDIO
    TITLE "00:42:16.80431"
    PERFORMER "Владимир Михайлович Зазнобин. Видеоархив"
    INDEX 01 42:16:60
  TRACK 173 AUDIO
    TITLE "00:42:30.86347"
    PERFORMER "Владимир Михайлович Зазнобин. Видеоархив"
    INDEX 01 42:30:65
  TRACK 174 AUDIO
    TITLE "00:42:45.87184"
    PERFORMER "Владимир Михайлович Зазнобин. Видеоархив"
    INDEX 01 42:45:65
  TRACK 175 AUDIO
    TITLE "00:42:59.37231"
    PERFORMER "Владимир Михайлович Зазнобин. Видеоархив"
    INDEX 01 42:59:28
  TRACK 176 AUDIO
    TITLE "00:43:12.55977"
    PERFORMER "Владимир Михайлович Зазнобин. Видеоархив"
    INDEX 01 43:12:42
  TRACK 177 AUDIO
    TITLE "00:43:26.91939"
    PERFORMER "Владимир Михайлович Зазнобин. Видеоархив"
    INDEX 01 43:26:69
  TRACK 178 AUDIO
    TITLE "00:43:41.02497"
    PERFORMER "Владимир Михайлович Зазнобин. Видеоархив"
    INDEX 01 43:41:02
  TRACK 179 AUDIO
    TITLE "00:43:55.96834"
    PERFORMER "Владимир Михайлович Зазнобин. Видеоархив"
    INDEX 01 43:55:73
  TRACK 180 AUDIO
    TITLE "00:44:09.12469"
    PERFORMER "Владимир Михайлович Зазнобин. Видеоархив"
    INDEX 01 44:09:09
  TRACK 181 AUDIO
    TITLE "00:44:23.29669"
    PERFORMER "Владимир Михайлович Зазнобин. Видеоархив"
    INDEX 01 44:23:22
  TRACK 182 AUDIO
    TITLE "00:44:37.86667"
    PERFORMER "Владимир Михайлович Зазнобин. Видеоархив"
    INDEX 01 44:37:65
  TRACK 183 AUDIO
    TITLE "00:44:54.14100"
    PERFORMER "Владимир Михайлович Зазнобин. Видеоархив"
    INDEX 01 44:54:11
  TRACK 184 AUDIO
    TITLE "00:45:09.14009"
    PERFORMER "Владимир Михайлович Зазнобин. Видеоархив"
    INDEX 01 45:09:11
  TRACK 185 AUDIO
    TITLE "00:45:24.08578"
    PERFORMER "Владимир Михайлович Зазнобин. Видеоархив"
    INDEX 01 45:24:06
  TRACK 186 AUDIO
    TITLE "00:45:39.00265"
    PERFORMER "Владимир Михайлович Зазнобин. Видеоархив"
    INDEX 01 45:39:00
  TRACK 187 AUDIO
    TITLE "00:45:54.72435"
    PERFORMER "Владимир Михайлович Зазнобин. Видеоархив"
    INDEX 01 45:54:54
  TRACK 188 AUDIO
    TITLE "00:46:08.36694"
    PERFORMER "Владимир Михайлович Зазнобин. Видеоархив"
    INDEX 01 46:08:28
  TRACK 189 AUDIO
    TITLE "00:46:23.38136"
    PERFORMER "Владимир Михайлович Зазнобин. Видеоархив"
    INDEX 01 46:23:29
  TRACK 190 AUDIO
    TITLE "00:46:36.54188"
    PERFORMER "Владимир Михайлович Зазнобин. Видеоархив"
    INDEX 01 46:36:41
  TRACK 191 AUDIO
    TITLE "00:46:50.99252"
    PERFORMER "Владимир Михайлович Зазнобин. Видеоархив"
    INDEX 01 46:50:74
  TRACK 192 AUDIO
    TITLE "00:47:06.51964"
    PERFORMER "Владимир Михайлович Зазнобин. Видеоархив"
    INDEX 01 47:06:39
  TRACK 193 AUDIO
    TITLE "00:47:19.67599"
    PERFORMER "Владимир Михайлович Зазнобин. Видеоархив"
    INDEX 01 47:19:51
  TRACK 194 AUDIO
    TITLE "00:47:38.06519"
    PERFORMER "Владимир Михайлович Зазнобин. Видеоархив"
    INDEX 01 47:38:05
  TRACK 195 AUDIO
    TITLE "00:47:52.66349"
    PERFORMER "Владимир Михайлович Зазнобин. Видеоархив"
    INDEX 01 47:52:50
  TRACK 196 AUDIO
    TITLE "00:48:06.07202"
    PERFORMER "Владимир Михайлович Зазнобин. Видеоархив"
    INDEX 01 48:06:05
  TRACK 197 AUDIO
    TITLE "00:48:23.50317"
    PERFORMER "Владимир Михайлович Зазнобин. Видеоархив"
    INDEX 01 48:23:38
  TRACK 198 AUDIO
    TITLE "00:48:39.75707"
    PERFORMER "Владимир Михайлович Зазнобин. Видеоархив"
    INDEX 01 48:39:57
  TRACK 199 AUDIO
    TITLE "00:48:54.12644"
    PERFORMER "Владимир Михайлович Зазнобин. Видеоархив"
    INDEX 01 48:54:09
  TRACK 200 AUDIO
    TITLE "00:49:08.50370"
    PERFORMER "Владимир Михайлович Зазнобин. Видеоархив"
    INDEX 01 49:08:38
  TRACK 201 AUDIO
    TITLE "00:49:21.89039"
    PERFORMER "Владимир Михайлович Зазнобин. Видеоархив"
    INDEX 01 49:21:67
  TRACK 202 AUDIO
    TITLE "00:49:37.43653"
    PERFORMER "Владимир Михайлович Зазнобин. Видеоархив"
    INDEX 01 49:37:33
  TRACK 203 AUDIO
    TITLE "00:49:54.16923"
    PERFORMER "Владимир Михайлович Зазнобин. Видеоархив"
    INDEX 01 49:54:13
  TRACK 204 AUDIO
    TITLE "00:50:08.03844"
    PERFORMER "Владимир Михайлович Зазнобин. Видеоархив"
    INDEX 01 50:08:03
  TRACK 205 AUDIO
    TITLE "00:50:21.15299"
    PERFORMER "Владимир Михайлович Зазнобин. Видеоархив"
    INDEX 01 50:21:11
  TRACK 206 AUDIO
    TITLE "00:50:35.42669"
    PERFORMER "Владимир Михайлович Зазнобин. Видеоархив"
    INDEX 01 50:35:32
  TRACK 207 AUDIO
    TITLE "00:50:50.62966"
    PERFORMER "Владимир Михайлович Зазнобин. Видеоархив"
    INDEX 01 50:50:47
  TRACK 208 AUDIO
    TITLE "00:51:05.40676"
    PERFORMER "Владимир Михайлович Зазнобин. Видеоархив"
    INDEX 01 51:05:31
  TRACK 209 AUDIO
    TITLE "00:51:18.87891"
    PERFORMER "Владимир Михайлович Зазнобин. Видеоархив"
    INDEX 01 51:18:66
  TRACK 210 AUDIO
    TITLE "00:51:32.58834"
    PERFORMER "Владимир Михайлович Зазнобин. Видеоархив"
    INDEX 01 51:32:44
  TRACK 211 AUDIO
    TITLE "00:51:46.33125"
    PERFORMER "Владимир Михайлович Зазнобин. Видеоархив"
    INDEX 01 51:46:25
  TRACK 212 AUDIO
    TITLE "00:52:02.29211"
    PERFORMER "Владимир Михайлович Зазнобин. Видеоархив"
    INDEX 01 52:02:22
  TRACK 213 AUDIO
    TITLE "00:52:16.94383"
    PERFORMER "Владимир Михайлович Зазнобин. Видеоархив"
    INDEX 01 52:16:71
  TRACK 214 AUDIO
    TITLE "00:52:31.18549"
    PERFORMER "Владимир Михайлович Зазнобин. Видеоархив"
    INDEX 01 52:31:14
  TRACK 215 AUDIO
    TITLE "00:52:44.35531"
    PERFORMER "Владимир Михайлович Зазнобин. Видеоархив"
    INDEX 01 52:44:27
  TRACK 216 AUDIO
    TITLE "00:52:58.21986"
    PERFORMER "Владимир Михайлович Зазнобин. Видеоархив"
    INDEX 01 52:58:16
  TRACK 217 AUDIO
    TITLE "00:53:13.79109"
    PERFORMER "Владимир Михайлович Зазнобин. Видеоархив"
    INDEX 01 53:13:59
  TRACK 218 AUDIO
    TITLE "00:53:31.83014"
    PERFORMER "Владимир Михайлович Зазнобин. Видеоархив"
    INDEX 01 53:31:62
  TRACK 219 AUDIO
    TITLE "00:53:46.26544"
    PERFORMER "Владимир Михайлович Зазнобин. Видеоархив"
    INDEX 01 53:46:20
  TRACK 220 AUDIO
    TITLE "00:53:59.65399"
    PERFORMER "Владимир Михайлович Зазнобин. Видеоархив"
    INDEX 01 53:59:49
  TRACK 221 AUDIO
    TITLE "00:54:14.50029"
    PERFORMER "Владимир Михайлович Зазнобин. Видеоархив"
    INDEX 01 54:14:38
  TRACK 222 AUDIO
    TITLE "00:54:29.60991"
    PERFORMER "Владимир Михайлович Зазнобин. Видеоархив"
    INDEX 01 54:29:46
  TRACK 223 AUDIO
    TITLE "00:54:45.91721"
    PERFORMER "Владимир Михайлович Зазнобин. Видеоархив"
    INDEX 01 54:45:69
  TRACK 224 AUDIO
    TITLE "00:54:59.71073"
    PERFORMER "Владимир Михайлович Зазнобин. Видеоархив"
    INDEX 01 54:59:53
  TRACK 225 AUDIO
    TITLE "00:55:15.43474"
    PERFORMER "Владимир Михайлович Зазнобин. Видеоархив"
    INDEX 01 55:15:33
  TRACK 226 AUDIO
    TITLE "00:55:30.42036"
    PERFORMER "Владимир Михайлович Зазнобин. Видеоархив"
    INDEX 01 55:30:32
  TRACK 227 AUDIO
    TITLE "00:55:44.37501"
    PERFORMER "Владимир Михайлович Зазнобин. Видеоархив"
    INDEX 01 55:44:28
  TRACK 228 AUDIO
    TITLE "00:55:59.93093"
    PERFORMER "Владимир Михайлович Зазнобин. Видеоархив"
    INDEX 01 55:59:70
  TRACK 229 AUDIO
    TITLE "00:56:15.35215"
    PERFORMER "Владимир Михайлович Зазнобин. Видеоархив"
    INDEX 01 56:15:26
  TRACK 230 AUDIO
    TITLE "00:56:32.66673"
    PERFORMER "Владимир Михайлович Зазнобин. Видеоархив"
    INDEX 01 56:32:50
  TRACK 231 AUDIO
    TITLE "00:56:47.19585"
    PERFORMER "Владимир Михайлович Зазнобин. Видеоархив"
    INDEX 01 56:47:15
  TRACK 232 AUDIO
    TITLE "00:57:01.28379"
    PERFORMER "Владимир Михайлович Зазнобин. Видеоархив"
    INDEX 01 57:01:21
  TRACK 233 AUDIO
    TITLE "00:57:19.66370"
    PERFORMER "Владимир Михайлович Зазнобин. Видеоархив"
    INDEX 01 57:19:50
  TRACK 234 AUDIO
    TITLE "00:57:33.06340"
    PERFORMER "Владимир Михайлович Зазнобин. Видеоархив"
    INDEX 01 57:33:05
  TRACK 235 AUDIO
    TITLE "00:57:46.68880"
    PERFORMER "Владимир Михайлович Зазнобин. Видеоархив"
    INDEX 01 57:46:52
  TRACK 236 AUDIO
    TITLE "00:58:00.44934"
    PERFORMER "Владимир Михайлович Зазнобин. Видеоархив"
    INDEX 01 58:00:34
  TRACK 237 AUDIO
    TITLE "00:58:14.63433"
    PERFORMER "Владимир Михайлович Зазнобин. Видеоархив"
    INDEX 01 58:14:48
  TRACK 238 AUDIO
    TITLE "00:58:29.51408"
    PERFORMER "Владимир Михайлович Зазнобин. Видеоархив"
    INDEX 01 58:29:39
  TRACK 239 AUDIO
    TITLE "00:58:43.45061"
    PERFORMER "Владимир Михайлович Зазнобин. Видеоархив"
    INDEX 01 58:43:34
  TRACK 240 AUDIO
    TITLE "00:58:57.94955"
    PERFORMER "Владимир Михайлович Зазнобин. Видеоархив"
    INDEX 01 58:57:71
  TRACK 241 AUDIO
    TITLE "00:59:11.02834"
    PERFORMER "Владимир Михайлович Зазнобин. Видеоархив"
    INDEX 01 59:11:02
  TRACK 242 AUDIO
    TITLE "00:59:24.74710"
    PERFORMER "Владимир Михайлович Зазнобин. Видеоархив"
    INDEX 01 59:24:56
  TRACK 243 AUDIO
    TITLE "00:59:38.34556"
    PERFORMER "Владимир Михайлович Зазнобин. Видеоархив"
    INDEX 01 59:38:26
  TRACK 244 AUDIO
    TITLE "00:59:54.27531"
    PERFORMER "Владимир Михайлович Зазнобин. Видеоархив"
    INDEX 01 59:54:21
  TRACK 245 AUDIO
    TITLE "01:00:07.24821"
    PERFORMER "Владимир Михайлович Зазнобин. Видеоархив"
    INDEX 01 60:07:19
  TRACK 246 AUDIO
    TITLE "01:00:23.55923"
    PERFORMER "Владимир Михайлович Зазнобин. Видеоархив"
    INDEX 01 60:23:42
  TRACK 247 AUDIO
    TITLE "01:00:40.04347"
    PERFORMER "Владимир Михайлович Зазнобин. Видеоархив"
    INDEX 01 60:40:03
  TRACK 248 AUDIO
    TITLE "01:00:54.30370"
    PERFORMER "Владимир Михайлович Зазнобин. Видеоархив"
    INDEX 01 60:54:23
  TRACK 249 AUDIO
    TITLE "01:01:11.57556"
    PERFORMER "Владимир Михайлович Зазнобин. Видеоархив"
    INDEX 01 61:11:43
  TRACK 250 AUDIO
    TITLE "01:01:27.62093"
    PERFORMER "Владимир Михайлович Зазнобин. Видеоархив"
    INDEX 01 61:27:47
  TRACK 251 AUDIO
    TITLE "01:01:44.18692"
    PERFORMER "Владимир Михайлович Зазнобин. Видеоархив"
    INDEX 01 61:44:14
  TRACK 252 AUDIO
    TITLE "01:01:58.48429"
    PERFORMER "Владимир Михайлович Зазнобин. Видеоархив"
    INDEX 01 61:58:36
  TRACK 253 AUDIO
    TITLE "01:02:13.08957"
    PERFORMER "Владимир Михайлович Зазнобин. Видеоархив"
    INDEX 01 62:13:07
  TRACK 254 AUDIO
    TITLE "01:02:26.47812"
    PERFORMER "Владимир Михайлович Зазнобин. Видеоархив"
    INDEX 01 62:26:36
  TRACK 255 AUDIO
    TITLE "01:02:40.22984"
    PERFORMER "Владимир Михайлович Зазнобин. Видеоархив"
    INDEX 01 62:40:17
  TRACK 256 AUDIO
    TITLE "01:02:54.92381"
    PERFORMER "Владимир Михайлович Зазнобин. Видеоархив"
    INDEX 01 62:54:69
  TRACK 257 AUDIO
    TITLE "01:03:09.34288"
    PERFORMER "Владимир Михайлович Зазнобин. Видеоархив"
    INDEX 01 63:09:26
  TRACK 258 AUDIO
    TITLE "01:03:22.79968"
    PERFORMER "Владимир Михайлович Зазнобин. Видеоархив"
    INDEX 01 63:22:60
  TRACK 259 AUDIO
    TITLE "01:03:37.79832"
    PERFORMER "Владимир Михайлович Зазнобин. Видеоархив"
    INDEX 01 63:37:60
  TRACK 260 AUDIO
    TITLE "01:03:52.90794"
    PERFORMER "Владимир Михайлович Зазнобин. Видеоархив"
    INDEX 01 63:52:68
  TRACK 261 AUDIO
    TITLE "01:04:08.08211"
    PERFORMER "Владимир Михайлович Зазнобин. Видеоархив"
    INDEX 01 64:08:06
  TRACK 262 AUDIO
    TITLE "01:04:24.06014"
    PERFORMER "Владимир Михайлович Зазнобин. Видеоархив"
    INDEX 01 64:24:05
  TRACK 263 AUDIO
    TITLE "01:04:38.20474"
    PERFORMER "Владимир Михайлович Зазнобин. Видеоархив"
    INDEX 01 64:38:15
  TRACK 264 AUDIO
    TITLE "01:04:54.46374"
    PERFORMER "Владимир Михайлович Зазнобин. Видеоархив"
    INDEX 01 64:54:35
  TRACK 265 AUDIO
    TITLE "01:05:09.78512"
    PERFORMER "Владимир Михайлович Зазнобин. Видеоархив"
    INDEX 01 65:09:59
  TRACK 266 AUDIO
    TITLE "01:05:23.90603"
    PERFORMER "Владимир Михайлович Зазнобин. Видеоархив"
    INDEX 01 65:23:68
  TRACK 267 AUDIO
    TITLE "01:05:38.56937"
    PERFORMER "Владимир Михайлович Зазнобин. Видеоархив"
    INDEX 01 65:38:43
  TRACK 268 AUDIO
    TITLE "01:05:54.65515"
    PERFORMER "Владимир Михайлович Зазнобин. Видеоархив"
    INDEX 01 65:54:49
  TRACK 269 AUDIO
    TITLE "01:06:08.35392"
    PERFORMER "Владимир Михайлович Зазнобин. Видеоархив"
    INDEX 01 66:08:27
  TRACK 270 AUDIO
    TITLE "01:06:23.46122"
    PERFORMER "Владимир Михайлович Зазнобин. Видеоархив"
    INDEX 01 66:23:35
  TRACK 271 AUDIO
    TITLE "01:06:37.21433"
    PERFORMER "Владимир Михайлович Зазнобин. Видеоархив"
    INDEX 01 66:37:16
  TRACK 272 AUDIO
    TITLE "01:06:53.67905"
    PERFORMER "Владимир Михайлович Зазнобин. Видеоархив"
    INDEX 01 66:53:51
  TRACK 273 AUDIO
    TITLE "01:07:06.94639"
    PERFORMER "Владимир Михайлович Зазнобин. Видеоархив"
    INDEX 01 67:06:71
  TRACK 274 AUDIO
    TITLE "01:07:20.51422"
    PERFORMER "Владимир Михайлович Зазнобин. Видеоархив"
    INDEX 01 67:20:39
  TRACK 275 AUDIO
    TITLE "01:07:34.08898"
    PERFORMER "Владимир Михайлович Зазнобин. Видеоархив"
    INDEX 01 67:34:07
  TRACK 276 AUDIO
    TITLE "01:07:47.23420"
    PERFORMER "Владимир Михайлович Зазнобин. Видеоархив"
    INDEX 01 67:47:18
  TRACK 277 AUDIO
    TITLE "01:08:04.36302"
    PERFORMER "Владимир Михайлович Зазнобин. Видеоархив"
    INDEX 01 68:04:27
  TRACK 278 AUDIO
    TITLE "01:08:20.46737"
    PERFORMER "Владимир Михайлович Зазнобин. Видеоархив"
    INDEX 01 68:20:35
  TRACK 279 AUDIO
    TITLE "01:08:35.35594"
    PERFORMER "Владимир Михайлович Зазнобин. Видеоархив"
    INDEX 01 68:35:27
  TRACK 280 AUDIO
    TITLE "01:08:48.78583"
    PERFORMER "Владимир Михайлович Зазнобин. Видеоархив"
    INDEX 01 68:48:59
  TRACK 281 AUDIO
    TITLE "01:09:01.95565"
    PERFORMER "Владимир Михайлович Зазнобин. Видеоархив"
    INDEX 01 69:01:72
  TRACK 282 AUDIO
    TITLE "01:09:17.23152"
    PERFORMER "Владимир Михайлович Зазнобин. Видеоархив"
    INDEX 01 69:17:17
  TRACK 283 AUDIO
    TITLE "01:09:33.19190"
    PERFORMER "Владимир Михайлович Зазнобин. Видеоархив"
    INDEX 01 69:33:14
  TRACK 284 AUDIO
    TITLE "01:09:49.24379"
    PERFORMER "Владимир Михайлович Зазнобин. Видеоархив"
    INDEX 01 69:49:18
  TRACK 285 AUDIO
    TITLE "01:10:05.46379"
    PERFORMER "Владимир Михайлович Зазнобин. Видеоархив"
    INDEX 01 70:05:35
  TRACK 286 AUDIO
    TITLE "01:10:21.50823"
    PERFORMER "Владимир Михайлович Зазнобин. Видеоархив"
    INDEX 01 70:21:38
  TRACK 287 AUDIO
    TITLE "01:10:38.17034"
    PERFORMER "Владимир Михайлович Зазнобин. Видеоархив"
    INDEX 01 70:38:13
  TRACK 288 AUDIO
    TITLE "01:10:52.25410"
    PERFORMER "Владимир Михайлович Зазнобин. Видеоархив"
    INDEX 01 70:52:19
  TRACK 289 AUDIO
    TITLE "01:11:05.35519"
    PERFORMER "Владимир Михайлович Зазнобин. Видеоархив"
    INDEX 01 71:05:27
  TRACK 290 AUDIO
    TITLE "01:11:19.39252"
    PERFORMER "Владимир Михайлович Зазнобин. Видеоархив"
    INDEX 01 71:19:29
  TRACK 291 AUDIO
    TITLE "01:11:35.44206"
    PERFORMER "Владимир Михайлович Зазнобин. Видеоархив"
    INDEX 01 71:35:33
  TRACK 292 AUDIO
    TITLE "01:11:48.99132"
    PERFORMER "Владимир Михайлович Зазнобин. Видеоархив"
    INDEX 01 71:48:74
  TRACK 293 AUDIO
    TITLE "01:12:01.96422"
    PERFORMER "Владимир Михайлович Зазнобин. Видеоархив"
    INDEX 01 72:01:72
  TRACK 294 AUDIO
    TITLE "01:12:16.89041"
    PERFORMER "Владимир Михайлович Зазнобин. Видеоархив"
    INDEX 01 72:16:67
  TRACK 295 AUDIO
    TITLE "01:12:30.68159"
    PERFORMER "Владимир Михайлович Зазнобин. Видеоархив"
    INDEX 01 72:30:51
  TRACK 296 AUDIO
    TITLE "01:12:45.55204"
    PERFORMER "Владимир Михайлович Зазнобин. Видеоархив"
    INDEX 01 72:45:41
  TRACK 297 AUDIO
    TITLE "01:13:00.45406"
    PERFORMER "Владимир Михайлович Зазнобин. Видеоархив"
    INDEX 01 73:00:34
  TRACK 298 AUDIO
    TITLE "01:13:14.33304"
    PERFORMER "Владимир Михайлович Зазнобин. Видеоархив"
    INDEX 01 73:14:25
  TRACK 299 AUDIO
    TITLE "01:13:27.38535"
    PERFORMER "Владимир Михайлович Зазнобин. Видеоархив"
    INDEX 01 73:27:29
  TRACK 300 AUDIO
    TITLE "01:13:43.36200"
    PERFORMER "Владимир Михайлович Зазнобин. Видеоархив"
    INDEX 01 73:43:27
  TRACK 301 AUDIO
    TITLE "01:13:57.00041"
    PERFORMER "Владимир Михайлович Зазнобин. Видеоархив"
    INDEX 01 73:57:00
  TRACK 302 AUDIO
    TITLE "01:14:10.77859"
    PERFORMER "Владимир Михайлович Зазнобин. Видеоархив"
    INDEX 01 74:10:58
  TRACK 303 AUDIO
    TITLE "01:14:31.23438"
    PERFORMER "Владимир Михайлович Зазнобин. Видеоархив"
    INDEX 01 74:31:18
  TRACK 304 AUDIO
    TITLE "01:14:48.63209"
    PERFORMER "Владимир Михайлович Зазнобин. Видеоархив"
    INDEX 01 74:48:47
  TRACK 305 AUDIO
    TITLE "01:15:03.65810"
    PERFORMER "Владимир Михайлович Зазнобин. Видеоархив"
    INDEX 01 75:03:49
  TRACK 306 AUDIO
    TITLE "01:15:16.64866"
    PERFORMER "Владимир Михайлович Зазнобин. Видеоархив"
    INDEX 01 75:16:49
  TRACK 307 AUDIO
    TITLE "01:15:29.57746"
    PERFORMER "Владимир Михайлович Зазнобин. Видеоархив"
    INDEX 01 75:29:43
  TRACK 308 AUDIO
    TITLE "01:15:43.10812"
    PERFORMER "Владимир Михайлович Зазнобин. Видеоархив"
    INDEX 01 75:43:08
  TRACK 309 AUDIO
    TITLE "01:15:58.63338"
    PERFORMER "Владимир Михайлович Зазнобин. Видеоархив"
    INDEX 01 75:58:48
  TRACK 310 AUDIO
    TITLE "01:16:11.91327"
    PERFORMER "Владимир Михайлович Зазнобин. Видеоархив"
    INDEX 01 76:11:68
  TRACK 311 AUDIO
    TITLE "01:16:25.13184"
    PERFORMER "Владимир Михайлович Зазнобин. Видеоархив"
    INDEX 01 76:25:10
  TRACK 312 AUDIO
    TITLE "01:16:43.81873"
    PERFORMER "Владимир Михайлович Зазнобин. Видеоархив"
    INDEX 01 76:43:61
  TRACK 313 AUDIO
    TITLE "01:16:59.83531"
    PERFORMER "Владимир Михайлович Зазнобин. Видеоархив"
    INDEX 01 76:59:63
  TRACK 314 AUDIO
    TITLE "01:17:14.52698"
    PERFORMER "Владимир Михайлович Зазнобин. Видеоархив"
    INDEX 01 77:14:40
  TRACK 315 AUDIO
    TITLE "01:17:27.95501"
    PERFORMER "Владимир Михайлович Зазнобин. Видеоархив"
    INDEX 01 77:27:72
  TRACK 316 AUDIO
    TITLE "01:17:42.05363"
    PERFORMER "Владимир Михайлович Зазнобин. Видеоархив"
    INDEX 01 77:42:04
  TRACK 317 AUDIO
    TITLE "01:17:59.92270"
    PERFORMER "Владимир Михайлович Зазнобин. Видеоархив"
    INDEX 01 77:59:69
  TRACK 318 AUDIO
    TITLE "01:18:19.60340"
    PERFORMER "Владимир Михайлович Зазнобин. Видеоархив"
    INDEX 01 78:19:45
  TRACK 319 AUDIO
    TITLE "01:18:33.59567"
    PERFORMER "Владимир Михайлович Зазнобин. Видеоархив"
    INDEX 01 78:33:45
  TRACK 320 AUDIO
    TITLE "01:18:48.27154"
    PERFORMER "Владимир Михайлович Зазнобин. Видеоархив"
    INDEX 01 78:48:20
  TRACK 321 AUDIO
    TITLE "01:19:02.84989"
    PERFORMER "Владимир Михайлович Зазнобин. Видеоархив"
    INDEX 01 79:02:64
  TRACK 322 AUDIO
    TITLE "01:19:15.90685"
    PERFORMER "Владимир Михайлович Зазнобин. Видеоархив"
    INDEX 01 79:15:68
  TRACK 323 AUDIO
    TITLE "01:19:29.15422"
    PERFORMER "Владимир Михайлович Зазнобин. Видеоархив"
    INDEX 01 79:29:12
  TRACK 324 AUDIO
    TITLE "01:19:43.02714"
    PERFORMER "Владимир Михайлович Зазнобин. Видеоархив"
    INDEX 01 79:43:02
  TRACK 325 AUDIO
    TITLE "01:19:56.15286"
    PERFORMER "Владимир Михайлович Зазнобин. Видеоархив"
    INDEX 01 79:56:11
  TRACK 326 AUDIO
    TITLE "01:20:11.91263"
    PERFORMER "Владимир Михайлович Зазнобин. Видеоархив"
    INDEX 01 80:11:68
  TRACK 327 AUDIO
    TITLE "01:20:27.02039"
    PERFORMER "Владимир Михайлович Зазнобин. Видеоархив"
    INDEX 01 80:27:02
  TRACK 328 AUDIO
    TITLE "01:20:44.29456"
    PERFORMER "Владимир Михайлович Зазнобин. Видеоархив"
    INDEX 01 80:44:22
  TRACK 329 AUDIO
    TITLE "01:20:58.75542"
    PERFORMER "Владимир Михайлович Зазнобин. Видеоархив"
    INDEX 01 80:58:57
  TRACK 330 AUDIO
    TITLE "01:21:12.57957"
    PERFORMER "Владимир Михайлович Зазнобин. Видеоархив"
    INDEX 01 81:12:43
  TRACK 331 AUDIO
    TITLE "01:21:26.76875"
    PERFORMER "Владимир Михайлович Зазнобин. Видеоархив"
    INDEX 01 81:26:58
  TRACK 332 AUDIO
    TITLE "01:21:40.96073"
    PERFORMER "Владимир Михайлович Зазнобин. Видеоархив"
    INDEX 01 81:40:72
  TRACK 333 AUDIO
    TITLE "01:21:54.65206"
    PERFORMER "Владимир Михайлович Зазнобин. Видеоархив"
    INDEX 01 81:54:49
  TRACK 334 AUDIO
    TITLE "01:22:07.88365"
    PERFORMER "Владимир Михайлович Зазнобин. Видеоархив"
    INDEX 01 82:07:66
  TRACK 335 AUDIO
    TITLE "01:22:21.76120"
    PERFORMER "Владимир Михайлович Зазнобин. Видеоархив"
    INDEX 01 82:21:57
  TRACK 336 AUDIO
    TITLE "01:22:36.41061"
    PERFORMER "Владимир Михайлович Зазнобин. Видеоархив"
    INDEX 01 82:36:31
  TRACK 337 AUDIO
    TITLE "01:22:50.20644"
    PERFORMER "Владимир Михайлович Зазнобин. Видеоархив"
    INDEX 01 82:50:15
  TRACK 338 AUDIO
    TITLE "01:23:04.22517"
    PERFORMER "Владимир Михайлович Зазнобин. Видеоархив"
    INDEX 01 83:04:17
  TRACK 339 AUDIO
    TITLE "01:23:20.22272"
    PERFORMER "Владимир Михайлович Зазнобин. Видеоархив"
    INDEX 01 83:20:17
  TRACK 340 AUDIO
    TITLE "01:23:36.76408"
    PERFORMER "Владимир Михайлович Зазнобин. Видеоархив"
    INDEX 01 83:36:57
  TRACK 341 AUDIO
    TITLE "01:23:53.13315"
    PERFORMER "Владимир Михайлович Зазнобин. Видеоархив"
    INDEX 01 83:53:10
  TRACK 342 AUDIO
    TITLE "01:24:06.64383"
    PERFORMER "Владимир Михайлович Зазнобин. Видеоархив"
    INDEX 01 84:06:48
  TRACK 343 AUDIO
    TITLE "01:24:22.53689"
    PERFORMER "Владимир Михайлович Зазнобин. Видеоархив"
    INDEX 01 84:22:40
  TRACK 344 AUDIO
    TITLE "01:24:36.80689"
    PERFORMER "Владимир Михайлович Зазнобин. Видеоархив"
    INDEX 01 84:36:61
  TRACK 345 AUDIO
    TITLE "01:24:50.87950"
    PERFORMER "Владимир Михайлович Зазнобин. Видеоархив"
    INDEX 01 84:50:66
  TRACK 346 AUDIO
    TITLE "01:25:04.25227"
    PERFORMER "Владимир Михайлович Зазнобин. Видеоархив"
    INDEX 01 85:04:19
  TRACK 347 AUDIO
    TITLE "01:25:18.84268"
    PERFORMER "Владимир Михайлович Зазнобин. Видеоархив"
    INDEX 01 85:18:63
  TRACK 348 AUDIO
    TITLE "01:25:32.33898"
    PERFORMER "Владимир Михайлович Зазнобин. Видеоархив"
    INDEX 01 85:32:25
  TRACK 349 AUDIO
    TITLE "01:25:47.83218"
    PERFORMER "Владимир Михайлович Зазнобин. Видеоархив"
    INDEX 01 85:47:62
  TRACK 350 AUDIO
    TITLE "01:26:01.81238"
    PERFORMER "Владимир Михайлович Зазнобин. Видеоархив"
    INDEX 01 86:01:61
  TRACK 351 AUDIO
    TITLE "01:26:16.87324"
    PERFORMER "Владимир Михайлович Зазнобин. Видеоархив"
    INDEX 01 86:16:65
  TRACK 352 AUDIO
    TITLE "01:26:30.61102"
    PERFORMER "Владимир Михайлович Зазнобин. Видеоархив"
    INDEX 01 86:30:46
  TRACK 353 AUDIO
    TITLE "01:26:46.30995"
    PERFORMER "Владимир Михайлович Зазнобин. Видеоархив"
    INDEX 01 86:46:23
  TRACK 354 AUDIO
    TITLE "01:27:02.36091"
    PERFORMER "Владимир Михайлович Зазнобин. Видеоархив"
    INDEX 01 87:02:27
  TRACK 355 AUDIO
    TITLE "01:27:16.08707"
    PERFORMER "Владимир Михайлович Зазнобин. Видеоархив"
    INDEX 01 87:16:07
  TRACK 356 AUDIO
    TITLE "01:27:29.88524"
    PERFORMER "Владимир Михайлович Зазнобин. Видеоархив"
    INDEX 01 87:29:66
  TRACK 357 AUDIO
    TITLE "01:27:45.84145"
    PERFORMER "Владимир Михайлович Зазнобин. Видеоархив"
    INDEX 01 87:45:63
  TRACK 358 AUDIO
    TITLE "01:27:59.62381"
    PERFORMER "Владимир Михайлович Зазнобин. Видеоархив"
    INDEX 01 87:59:47
  TRACK 359 AUDIO
    TITLE "01:28:12.74905"
    PERFORMER "Владимир Михайлович Зазнобин. Видеоархив"
    INDEX 01 88:12:56
  TRACK 360 AUDIO
    TITLE "01:28:27.11610"
    PERFORMER "Владимир Михайлович Зазнобин. Видеоархив"
    INDEX 01 88:27:09
  TRACK 361 AUDIO
    TITLE "01:28:42.31116"
    PERFORMER "Владимир Михайлович Зазнобин. Видеоархив"
    INDEX 01 88:42:23
  TRACK 362 AUDIO
    TITLE "01:28:56.30156"
    PERFORMER "Владимир Михайлович Зазнобин. Видеоархив"
    INDEX 01 88:56:23
  TRACK 363 AUDIO
    TITLE "01:29:11.58070"
    PERFORMER "Владимир Михайлович Зазнобин. Видеоархив"
    INDEX 01 89:11:44
  TRACK 364 AUDIO
    TITLE "01:29:25.56229"
    PERFORMER "Владимир Михайлович Зазнобин. Видеоархив"
    INDEX 01 89:25:42
  TRACK 365 AUDIO
    TITLE "01:29:41.91417"
    PERFORMER "Владимир Михайлович Зазнобин. Видеоархив"
    INDEX 01 89:41:69
  TRACK 366 AUDIO
    TITLE "01:29:54.86943"
    PERFORMER "Владимир Михайлович Зазнобин. Видеоархив"
    INDEX 01 89:54:65
  TRACK 367 AUDIO
    TITLE "01:30:10.71746"
    PERFORMER "Владимир Михайлович Зазнобин. Видеоархив"
    INDEX 01 90:10:54
  TRACK 368 AUDIO
    TITLE "01:30:27.91454"
    PERFORMER "Владимир Михайлович Зазнобин. Видеоархив"
    INDEX 01 90:27:69
  TRACK 369 AUDIO
    TITLE "01:30:41.57059"
    PERFORMER "Владимир Михайлович Зазнобин. Видеоархив"
    INDEX 01 90:41:43
  TRACK 370 AUDIO
    TITLE "01:30:54.56347"
    PERFORMER "Владимир Михайлович Зазнобин. Видеоархив"
    INDEX 01 90:54:42
  TRACK 371 AUDIO
    TITLE "01:31:08.99832"
    PERFORMER "Владимир Михайлович Зазнобин. Видеоархив"
    INDEX 01 91:09:00
  TRACK 372 AUDIO
    TITLE "01:31:22.97991"
    PERFORMER "Владимир Михайлович Зазнобин. Видеоархив"
    INDEX 01 91:22:73
  TRACK 373 AUDIO
    TITLE "01:31:36.08100"
    PERFORMER "Владимир Михайлович Зазнобин. Видеоархив"
    INDEX 01 91:36:06
  TRACK 374 AUDIO
    TITLE "01:31:50.26878"
    PERFORMER "Владимир Михайлович Зазнобин. Видеоархив"
    INDEX 01 91:50:20
  TRACK 375 AUDIO
    TITLE "01:32:04.19882"
    PERFORMER "Владимир Михайлович Зазнобин. Видеоархив"
    INDEX 01 92:04:15
  TRACK 376 AUDIO
    TITLE "01:32:17.94125"
    PERFORMER "Владимир Михайлович Зазнобин. Видеоархив"
    INDEX 01 92:17:71
  TRACK 377 AUDIO
    TITLE "01:32:31.55596"
    PERFORMER "Владимир Михайлович Зазнобин. Видеоархив"
    INDEX 01 92:31:42
  TRACK 378 AUDIO
    TITLE "01:32:44.98213"
    PERFORMER "Владимир Михайлович Зазнобин. Видеоархив"
    INDEX 01 92:44:74
  TRACK 379 AUDIO
    TITLE "01:33:02.91762"
    PERFORMER "Владимир Михайлович Зазнобин. Видеоархив"
    INDEX 01 93:02:69
  TRACK 380 AUDIO
    TITLE "01:33:19.37261"
    PERFORMER "Владимир Михайлович Зазнобин. Видеоархив"
    INDEX 01 93:19:28
  TRACK 381 AUDIO
    TITLE "01:33:33.16703"
    PERFORMER "Владимир Михайлович Зазнобин. Видеоархив"
    INDEX 01 93:33:13
  TRACK 382 AUDIO
    TITLE "01:33:46.75946"
    PERFORMER "Владимир Михайлович Зазнобин. Видеоархив"
    INDEX 01 93:46:57
  TRACK 383 AUDIO
    TITLE "01:34:02.16166"
    PERFORMER "Владимир Михайлович Зазнобин. Видеоархив"
    INDEX 01 94:02:12
  TRACK 384 AUDIO
    TITLE "01:34:21.72626"
    PERFORMER "Владимир Михайлович Зазнобин. Видеоархив"
    INDEX 01 94:21:54
  TRACK 385 AUDIO
    TITLE "01:34:35.22950"
    PERFORMER "Владимир Михайлович Зазнобин. Видеоархив"
    INDEX 01 94:35:17
  TRACK 386 AUDIO
    TITLE "01:34:48.30413"
    PERFORMER "Владимир Михайлович Зазнобин. Видеоархив"
    INDEX 01 94:48:23
  TRACK 387 AUDIO
    TITLE "01:35:05.80168"
    PERFORMER "Владимир Михайлович Зазнобин. Видеоархив"
    INDEX 01 95:05:60
  TRACK 388 AUDIO
    TITLE "01:35:20.91315"
    PERFORMER "Владимир Михайлович Зазнобин. Видеоархив"
    INDEX 01 95:20:68
  TRACK 389 AUDIO
    TITLE "01:35:34.93005"
    PERFORMER "Владимир Михайлович Зазнобин. Видеоархив"
    INDEX 01 95:34:70
  TRACK 390 AUDIO
    TITLE "01:35:51.37342"
    PERFORMER "Владимир Михайлович Зазнобин. Видеоархив"
    INDEX 01 95:51:28
  TRACK 391 AUDIO
    TITLE "01:36:07.15084"
    PERFORMER "Владимир Михайлович Зазнобин. Видеоархив"
    INDEX 01 96:07:11
  TRACK 392 AUDIO
    TITLE "01:36:21.45426"
    PERFORMER "Владимир Михайлович Зазнобин. Видеоархив"
    INDEX 01 96:21:34
  TRACK 393 AUDIO
    TITLE "01:36:34.79868"
    PERFORMER "Владимир Михайлович Зазнобин. Видеоархив"
    INDEX 01 96:34:60
  TRACK 394 AUDIO
    TITLE "01:36:48.92658"
    PERFORMER "Владимир Михайлович Зазнобин. Видеоархив"
    INDEX 01 96:48:69
  TRACK 395 AUDIO
    TITLE "01:37:04.72535"
    PERFORMER "Владимир Михайлович Зазнобин. Видеоархив"
    INDEX 01 97:04:54
  TRACK 396 AUDIO
    TITLE "01:37:21.69673"
    PERFORMER "Владимир Михайлович Зазнобин. Видеоархив"
    INDEX 01 97:21:52
  TRACK 397 AUDIO
    TITLE "01:37:36.08283"
    PERFORMER "Владимир Михайлович Зазнобин. Видеоархив"
    INDEX 01 97:36:06
  TRACK 398 AUDIO
    TITLE "01:37:50.04259"
    PERFORMER "Владимир Михайлович Зазнобин. Видеоархив"
    INDEX 01 97:50:03
  TRACK 399 AUDIO
    TITLE "01:38:03.19197"
    PERFORMER "Владимир Михайлович Зазнобин. Видеоархив"
    INDEX 01 98:03:14
  TRACK 400 AUDIO
    TITLE "01:38:17.96304"
    PERFORMER "Владимир Михайлович Зазнобин. Видеоархив"
    INDEX 01 98:17:72
  TRACK 401 AUDIO
    TITLE "01:38:32.22746"
    PERFORMER "Владимир Михайлович Зазнобин. Видеоархив"
    INDEX 01 98:32:17
  TRACK 402 AUDIO
    TITLE "01:38:45.94156"
    PERFORMER "Владимир Михайлович Зазнобин. Видеоархив"
    INDEX 01 98:45:71
  TRACK 403 AUDIO
    TITLE "01:38:59.21959"
    PERFORMER "Владимир Михайлович Зазнобин. Видеоархив"
    INDEX 01 98:59:16
  TRACK 404 AUDIO
    TITLE "01:39:15.32626"
    PERFORMER "Владимир Михайлович Зазнобин. Видеоархив"
    INDEX 01 99:15:24
  TRACK 405 AUDIO
    TITLE "01:39:29.51127"
    PERFORMER "Владимир Михайлович Зазнобин. Видеоархив"
    INDEX 01 99:29:38
  TRACK 406 AUDIO
    TITLE "01:39:45.48651"
    PERFORMER "Владимир Михайлович Зазнобин. Видеоархив"
    INDEX 01 99:45:36
  TRACK 407 AUDIO
    TITLE "01:39:59.44442"
    PERFORMER "Владимир Михайлович Зазнобин. Видеоархив"
    INDEX 01 99:59:33
  TRACK 408 AUDIO
    TITLE "01:40:12.78653"
    PERFORMER "Владимир Михайлович Зазнобин. Видеоархив"
    INDEX 01 100:12:59
  TRACK 409 AUDIO
    TITLE "01:40:27.83020"
    PERFORMER "Владимир Михайлович Зазнобин. Видеоархив"
    INDEX 01 100:27:62
  TRACK 410 AUDIO
    TITLE "01:40:41.84896"
    PERFORMER "Владимир Михайлович Зазнобин. Видеоархив"
    INDEX 01 100:41:64
  TRACK 411 AUDIO
    TITLE "01:40:56.99433"
    PERFORMER "Владимир Михайлович Зазнобин. Видеоархив"
    INDEX 01 100:57:00
  TRACK 412 AUDIO
    TITLE "01:41:10.77576"
    PERFORMER "Владимир Михайлович Зазнобин. Видеоархив"
    INDEX 01 101:10:58
  TRACK 413 AUDIO
    TITLE "01:41:26.46356"
    PERFORMER "Владимир Михайлович Зазнобин. Видеоархив"
    INDEX 01 101:26:35
  TRACK 414 AUDIO
    TITLE "01:41:40.37270"
    PERFORMER "Владимир Михайлович Зазнобин. Видеоархив"
    INDEX 01 101:40:28
  TRACK 415 AUDIO
    TITLE "01:41:55.49161"
    PERFORMER "Владимир Михайлович Зазнобин. Видеоархив"
    INDEX 01 101:55:37
  TRACK 416 AUDIO
    TITLE "01:42:11.71020"
    PERFORMER "Владимир Михайлович Зазнобин. Видеоархив"
    INDEX 01 102:11:53
  TRACK 417 AUDIO
    TITLE "01:42:27.50574"
    PERFORMER "Владимир Михайлович Зазнобин. Видеоархив"
    INDEX 01 102:27:38
  TRACK 418 AUDIO
    TITLE "01:42:40.81859"
    PERFORMER "Владимир Михайлович Зазнобин. Видеоархив"
    INDEX 01 102:40:61
  TRACK 419 AUDIO
    TITLE "01:42:56.29277"
    PERFORMER "Владимир Михайлович Зазнобин. Видеоархив"
    INDEX 01 102:56:22
  TRACK 420 AUDIO
    TITLE "01:43:09.39850"
    PERFORMER "Владимир Михайлович Зазнобин. Видеоархив"
    INDEX 01 103:09:30
  TRACK 421 AUDIO
    TITLE "01:43:23.21848"
    PERFORMER "Владимир Михайлович Зазнобин. Видеоархив"
    INDEX 01 103:23:16
  TRACK 422 AUDIO
    TITLE "01:43:36.28660"
    PERFORMER "Владимир Михайлович Зазнобин. Видеоархив"
    INDEX 01 103:36:21
  TRACK 423 AUDIO
    TITLE "01:43:49.73088"
    PERFORMER "Владимир Михайлович Зазнобин. Видеоархив"
    INDEX 01 103:49:55
  TRACK 424 AUDIO
    TITLE "01:44:06.57317"
    PERFORMER "Владимир Михайлович Зазнобин. Видеоархив"
    INDEX 01 104:06:43
  TRACK 425 AUDIO
    TITLE "01:44:20.80971"
    PERFORMER "Владимир Михайлович Зазнобин. Видеоархив"
    INDEX 01 104:20:61
  TRACK 426 AUDIO
    TITLE "01:44:34.29347"
    PERFORMER "Владимир Михайлович Зазнобин. Видеоархив"
    INDEX 01 104:34:22
  TRACK 427 AUDIO
    TITLE "01:44:47.43218"
    PERFORMER "Владимир Михайлович Зазнобин. Видеоархив"
    INDEX 01 104:47:32
  TRACK 428 AUDIO
    TITLE "01:45:03.61687"
    PERFORMER "Владимир Михайлович Зазнобин. Видеоархив"
    INDEX 01 105:03:46
  TRACK 429 AUDIO
    TITLE "01:45:21.70932"
    PERFORMER "Владимир Михайлович Зазнобин. Видеоархив"
    INDEX 01 105:21:53
  TRACK 430 AUDIO
    TITLE "01:45:35.60639"
    PERFORMER "Владимир Михайлович Зазнобин. Видеоархив"
    INDEX 01 105:35:45
  TRACK 431 AUDIO
    TITLE "01:45:51.89512"
    PERFORMER "Владимир Михайлович Зазнобин. Видеоархив"
    INDEX 01 105:51:67
  TRACK 432 AUDIO
    TITLE "01:46:05.29156"
    PERFORMER "Владимир Михайлович Зазнобин. Видеоархив"
    INDEX 01 106:05:22
  TRACK 433 AUDIO
    TITLE "01:46:19.03678"
    PERFORMER "Владимир Михайлович Зазнобин. Видеоархив"
    INDEX 01 106:19:03
  TRACK 434 AUDIO
    TITLE "01:46:32.23726"
    PERFORMER "Владимир Михайлович Зазнобин. Видеоархив"
    INDEX 01 106:32:18
  TRACK 435 AUDIO
    TITLE "01:46:46.00429"
    PERFORMER "Владимир Михайлович Зазнобин. Видеоархив"
    INDEX 01 106:46:00
  TRACK 436 AUDIO
    TITLE "01:46:59.26698"
    PERFORMER "Владимир Михайлович Зазнобин. Видеоархив"
    INDEX 01 106:59:20
  TRACK 437 AUDIO
    TITLE "01:47:12.37041"
    PERFORMER "Владимир Михайлович Зазнобин. Видеоархив"
    INDEX 01 107:12:28
  TRACK 438 AUDIO
    TITLE "01:47:25.97583"
    PERFORMER "Владимир Михайлович Зазнобин. Видеоархив"
    INDEX 01 107:25:73
  TRACK 439 AUDIO
    TITLE "01:47:39.32492"
    PERFORMER "Владимир Михайлович Зазнобин. Видеоархив"
    INDEX 01 107:39:24
  TRACK 440 AUDIO
    TITLE "01:47:52.33544"
    PERFORMER "Владимир Михайлович Зазнобин. Видеоархив"
    INDEX 01 107:52:25
  TRACK 441 AUDIO
    TITLE "01:48:05.42354"
    PERFORMER "Владимир Михайлович Зазнобин. Видеоархив"
    INDEX 01 108:05:32
  TRACK 442 AUDIO
    TITLE "01:48:19.59134"
    PERFORMER "Владимир Михайлович Зазнобин. Видеоархив"
    INDEX 01 108:19:44
  TRACK 443 AUDIO
    TITLE "01:48:34.26955"
    PERFORMER "Владимир Михайлович Зазнобин. Видеоархив"
    INDEX 01 108:34:20
  TRACK 444 AUDIO
    TITLE "01:48:47.99385"
    PERFORMER "Владимир Михайлович Зазнобин. Видеоархив"
    INDEX 01 108:48:00
  TRACK 445 AUDIO
    TITLE "01:49:01.36707"
    PERFORMER "Владимир Михайлович Зазнобин. Видеоархив"
    INDEX 01 109:01:28
  TRACK 446 AUDIO
    TITLE "01:49:16.68474"
    PERFORMER "Владимир Михайлович Зазнобин. Видеоархив"
    INDEX 01 109:16:51
  TRACK 447 AUDIO
    TITLE "01:49:32.95166"
    PERFORMER "Владимир Михайлович Зазнобин. Видеоархив"
    INDEX 01 109:32:71
  TRACK 448 AUDIO
    TITLE "01:49:48.81868"
    PERFORMER "Владимир Михайлович Зазнобин. Видеоархив"
    INDEX 01 109:48:61
  TRACK 449 AUDIO
    TITLE "01:50:04.31515"
    PERFORMER "Владимир Михайлович Зазнобин. Видеоархив"
    INDEX 01 110:04:24
  TRACK 450 AUDIO
    TITLE "01:50:20.56812"
    PERFORMER "Владимир Михайлович Зазнобин. Видеоархив"
    INDEX 01 110:20:43
  TRACK 451 AUDIO
    TITLE "01:50:34.79816"
    PERFORMER "Владимир Михайлович Зазнобин. Видеоархив"
    INDEX 01 110:34:60
  TRACK 452 AUDIO
    TITLE "01:50:47.95220"
    PERFORMER "Владимир Михайлович Зазнобин. Видеоархив"
    INDEX 01 110:47:71
  TRACK 453 AUDIO
    TITLE "01:51:01.31243"
    PERFORMER "Владимир Михайлович Зазнобин. Видеоархив"
    INDEX 01 111:01:23
  TRACK 454 AUDIO
    TITLE "01:51:14.41351"
    PERFORMER "Владимир Михайлович Зазнобин. Видеоархив"
    INDEX 01 111:14:31
  TRACK 455 AUDIO
    TITLE "01:51:27.81553"
    PERFORMER "Владимир Михайлович Зазнобин. Видеоархив"
    INDEX 01 111:27:61
  TRACK 456 AUDIO
    TITLE "01:51:42.86757"
    PERFORMER "Владимир Михайлович Зазнобин. Видеоархив"
    INDEX 01 111:42:65
  TRACK 457 AUDIO
    TITLE "01:51:56.38662"
    PERFORMER "Владимир Михайлович Зазнобин. Видеоархив"
    INDEX 01 111:56:29
  TRACK 458 AUDIO
    TITLE "01:52:12.74082"
    PERFORMER "Владимир Михайлович Зазнобин. Видеоархив"
    INDEX 01 112:12:56
  TRACK 459 AUDIO
    TITLE "01:52:31.00138"
    PERFORMER "Владимир Михайлович Зазнобин. Видеоархив"
    INDEX 01 112:31:00
  TRACK 460 AUDIO
    TITLE "01:52:47.87107"
    PERFORMER "Владимир Михайлович Зазнобин. Видеоархив"
    INDEX 01 112:47:65
  TRACK 461 AUDIO
    TITLE "01:53:03.94664"
    PERFORMER "Владимир Михайлович Зазнобин. Видеоархив"
    INDEX 01 113:03:71
  TRACK 462 AUDIO
    TITLE "01:53:19.61585"
    PERFORMER "Владимир Михайлович Зазнобин. Видеоархив"
    INDEX 01 113:19:46
  TRACK 463 AUDIO
    TITLE "01:53:33.24961"
    PERFORMER "Владимир Михайлович Зазнобин. Видеоархив"
    INDEX 01 113:33:19
  TRACK 464 AUDIO
    TITLE "01:53:46.82857"
    PERFORMER "Владимир Михайлович Зазнобин. Видеоархив"
    INDEX 01 113:46:62
  TRACK 465 AUDIO
    TITLE "01:54:00.85429"
    PERFORMER "Владимир Михайлович Зазнобин. Видеоархив"
    INDEX 01 114:00:64
  TRACK 466 AUDIO
    TITLE "01:54:16.67349"
    PERFORMER "Владимир Михайлович Зазнобин. Видеоархив"
    INDEX 01 114:16:51
  TRACK 467 AUDIO
    TITLE "01:54:33.16052"
    PERFORMER "Владимир Михайлович Зазнобин. Видеоархив"
    INDEX 01 114:33:12
  TRACK 468 AUDIO
    TITLE "01:54:47.75651"
    PERFORMER "Владимир Михайлович Зазнобин. Видеоархив"
    INDEX 01 114:47:57
  TRACK 469 AUDIO
    TITLE "01:55:04.90531"
    PERFORMER "Владимир Михайлович Зазнобин. Видеоархив"
    INDEX 01 115:04:68
  TRACK 470 AUDIO
    TITLE "01:55:20.18442"
    PERFORMER "Владимир Михайлович Зазнобин. Видеоархив"
    INDEX 01 115:20:14
  TRACK 471 AUDIO
    TITLE "01:55:47.03637"
    PERFORMER "Владимир Михайлович Зазнобин. Видеоархив"
    INDEX 01 115:47:03
  TRACK 472 AUDIO
    TITLE "01:56:02.53701"
    PERFORMER "Владимир Михайлович Зазнобин. Видеоархив"
    INDEX 01 116:02:40
  TRACK 473 AUDIO
    TITLE "01:56:16.95701"
    PERFORMER "Владимир Михайлович Зазнобин. Видеоархив"
    INDEX 01 116:16:72
  TRACK 474 AUDIO
    TITLE "01:56:32.51569"
    PERFORMER "Владимир Михайлович Зазнобин. Видеоархив"
    INDEX 01 116:32:39
  TRACK 475 AUDIO
    TITLE "01:56:48.21696"
    PERFORMER "Владимир Михайлович Зазнобин. Видеоархив"
    INDEX 01 116:48:16
  TRACK 476 AUDIO
    TITLE "01:57:04.65336"
    PERFORMER "Владимир Михайлович Зазнобин. Видеоархив"
    INDEX 01 117:04:49
  TRACK 477 AUDIO
    TITLE "01:57:38.90830"
    PERFORMER "Владимир Михайлович Зазнобин. Видеоархив"
    INDEX 01 117:38:68
  TRACK 478 AUDIO
    TITLE "01:57:52.00288"
    PERFORMER "Владимир Михайлович Зазнобин. Видеоархив"
    INDEX 01 117:52:00
  TRACK 479 AUDIO
    TITLE "01:58:07.57458"
    PERFORMER "Владимир Михайлович Зазнобин. Видеоархив"
    INDEX 01 118:07:43
  TRACK 480 AUDIO
    TITLE "01:58:28.11488"
    PERFORMER "Владимир Михайлович Зазнобин. Видеоархив"
    INDEX 01 118:28:09
  TRACK 481 AUDIO
    TITLE "01:58:44.73889"
    PERFORMER "Владимир Михайлович Зазнобин. Видеоархив"
    INDEX 01 118:44:55
  TRACK 482 AUDIO
    TITLE "01:58:59.92791"
    PERFORMER "Владимир Михайлович Зазнобин. Видеоархив"
    INDEX 01 118:59:70
  TRACK 483 AUDIO
    TITLE "01:59:14.47839"
    PERFORMER "Владимир Михайлович Зазнобин. Видеоархив"
    INDEX 01 119:14:36
  TRACK 484 AUDIO
    TITLE "01:59:28.70054"
    PERFORMER "Владимир Михайлович Зазнобин. Видеоархив"
    INDEX 01 119:28:53
  TRACK 485 AUDIO
    TITLE "01:59:42.82796"
    PERFORMER "Владимир Михайлович Зазнобин. Видеоархив"
    INDEX 01 119:42:62
  TRACK 486 AUDIO
    TITLE "01:59:59.57785"
    PERFORMER "Владимир Михайлович Зазнобин. Видеоархив"
    INDEX 01 119:59:43
  TRACK 487 AUDIO
    TITLE "02:00:13.44426"
    PERFORMER "Владимир Михайлович Зазнобин. Видеоархив"
    INDEX 01 120:13:33
  TRACK 488 AUDIO
    TITLE "02:00:27.24009"
    PERFORMER "Владимир Михайлович Зазнобин. Видеоархив"
    INDEX 01 120:27:18
  TRACK 489 AUDIO
    TITLE "02:00:41.49753"
    PERFORMER "Владимир Михайлович Зазнобин. Видеоархив"
    INDEX 01 120:41:37
  TRACK 490 AUDIO
    TITLE "02:00:57.40778"
    PERFORMER "Владимир Михайлович Зазнобин. Видеоархив"
    INDEX 01 120:57:31
  TRACK 491 AUDIO
    TITLE "02:01:11.74045"
    PERFORMER "Владимир Михайлович Зазнобин. Видеоархив"
    INDEX 01 121:11:56
  TRACK 492 AUDIO
    TITLE "02:01:29.19018"
    PERFORMER "Владимир Михайлович Зазнобин. Видеоархив"
    INDEX 01 121:29:14
  TRACK 493 AUDIO
    TITLE "02:01:52.29302"
    PERFORMER "Владимир Михайлович Зазнобин. Видеоархив"
    INDEX 01 121:52:22
  TRACK 494 AUDIO
    TITLE "02:02:15.01646"
    PERFORMER "Владимир Михайлович Зазнобин. Видеоархив"
    INDEX 01 122:15:01
  TRACK 495 AUDIO
    TITLE "02:02:28.17932"
    PERFORMER "Владимир Михайлович Зазнобин. Видеоархив"
    INDEX 01 122:28:13
  TRACK 496 AUDIO
    TITLE "02:02:55.12415"
    PERFORMER "Владимир Михайлович Зазнобин. Видеоархив"
    INDEX 01 122:55:09
  TRACK 497 AUDIO
    TITLE "02:03:12.73594"
    PERFORMER "Владимир Михайлович Зазнобин. Видеоархив"
    INDEX 01 123:12:55
  TRACK 498 AUDIO
    TITLE "02:03:27.61011"
    PERFORMER "Владимир Михайлович Зазнобин. Видеоархив"
    INDEX 01 123:27:46
  TRACK 499 AUDIO
    TITLE "02:03:44.34095"
    PERFORMER "Владимир Михайлович Зазнобин. Видеоархив"
    INDEX 01 123:44:26
  TRACK 500 AUDIO
    TITLE "02:03:58.74794"
    PERFORMER "Владимир Михайлович Зазнобин. Видеоархив"
    INDEX 01 123:58:56
  TRACK 501 AUDIO
    TITLE "02:04:23.52122"
    PERFORMER "Владимир Михайлович Зазнобин. Видеоархив"
    INDEX 01 124:23:39
  TRACK 502 AUDIO
    TITLE "02:04:46.94544"
    PERFORMER "Владимир Михайлович Зазнобин. Видеоархив"
    INDEX 01 124:46:71
  TRACK 503 AUDIO
    TITLE "02:05:02.46141"
    PERFORMER "Владимир Михайлович Зазнобин. Видеоархив"
    INDEX 01 125:02:35
  TRACK 504 AUDIO
    TITLE "02:05:18.79796"
    PERFORMER "Владимир Михайлович Зазнобин. Видеоархив"
    INDEX 01 125:18:60
  TRACK 505 AUDIO
    TITLE "02:05:33.31501"
    PERFORMER "Владимир Михайлович Зазнобин. Видеоархив"
    INDEX 01 125:33:24
  TRACK 506 AUDIO
    TITLE "02:05:47.57293"
    PERFORMER "Владимир Михайлович Зазнобин. Видеоархив"
    INDEX 01 125:47:43
  TRACK 507 AUDIO
    TITLE "02:06:01.22247"
    PERFORMER "Владимир Михайлович Зазнобин. Видеоархив"
    INDEX 01 126:01:17
  TRACK 508 AUDIO
    TITLE "02:06:14.87664"
    PERFORMER "Владимир Михайлович Зазнобин. Видеоархив"
    INDEX 01 126:14:66
  TRACK 509 AUDIO
    TITLE "02:06:28.28517"
    PERFORMER "Владимир Михайлович Зазнобин. Видеоархив"
    INDEX 01 126:28:21
  TRACK 510 AUDIO
    TITLE "02:06:43.39757"
    PERFORMER "Владимир Михайлович Зазнобин. Видеоархив"
    INDEX 01 126:43:30
  TRACK 511 AUDIO
    TITLE "02:06:57.64154"
    PERFORMER "Владимир Михайлович Зазнобин. Видеоархив"
    INDEX 01 126:57:48
  TRACK 512 AUDIO
    TITLE "02:07:11.96308"
    PERFORMER "Владимир Михайлович Зазнобин. Видеоархив"
    INDEX 01 127:11:72
  TRACK 513 AUDIO
    TITLE "02:07:24.90952"
    PERFORMER "Владимир Михайлович Зазнобин. Видеоархив"
    INDEX 01 127:24:68
  TRACK 514 AUDIO
    TITLE "02:07:39.85986"
    PERFORMER "Владимир Михайлович Зазнобин. Видеоархив"
    INDEX 01 127:39:64
  TRACK 515 AUDIO
    TITLE "02:07:56.25819"
    PERFORMER "Владимир Михайлович Зазнобин. Видеоархив"
    INDEX 01 127:56:19
  TRACK 516 AUDIO
    TITLE "02:08:09.61376"
    PERFORMER "Владимир Михайлович Зазнобин. Видеоархив"
    INDEX 01 128:09:46
  TRACK 517 AUDIO
    TITLE "02:08:27.07834"
    PERFORMER "Владимир Михайлович Зазнобин. Видеоархив"
    INDEX 01 128:27:06
  TRACK 518 AUDIO
    TITLE "02:08:42.83347"
    PERFORMER "Владимир Михайлович Зазнобин. Видеоархив"
    INDEX 01 128:42:63
  TRACK 519 AUDIO
    TITLE "02:09:00.83909"
    PERFORMER "Владимир Михайлович Зазнобин. Видеоархив"
    INDEX 01 129:00:63
  TRACK 520 AUDIO
    TITLE "02:09:16.83107"
    PERFORMER "Владимир Михайлович Зазнобин. Видеоархив"
    INDEX 01 129:16:62
  TRACK 521 AUDIO
    TITLE "02:09:32.60848"
    PERFORMER "Владимир Михайлович Зазнобин. Видеоархив"
    INDEX 01 129:32:46
  TRACK 522 AUDIO
    TITLE "02:09:48.44209"
    PERFORMER "Владимир Михайлович Зазнобин. Видеоархив"
    INDEX 01 129:48:33
  TRACK 523 AUDIO
    TITLE "02:10:02.16549"
    PERFORMER "Владимир Михайлович Зазнобин. Видеоархив"
    INDEX 01 130:02:12
  TRACK 524 AUDIO
    TITLE "02:10:15.35528"
    PERFORMER "Владимир Михайлович Зазнобин. Видеоархив"
    INDEX 01 130:15:27
  TRACK 525 AUDIO
    TITLE "02:10:32.42372"
    PERFORMER "Владимир Михайлович Зазнобин. Видеоархив"
    INDEX 01 130:32:32
  TRACK 526 AUDIO
    TITLE "02:10:45.35252"
    PERFORMER "Владимир Михайлович Зазнобин. Видеоархив"
    INDEX 01 130:45:26
  TRACK 527 AUDIO
    TITLE "02:11:01.17778"
    PERFORMER "Владимир Михайлович Зазнобин. Видеоархив"
    INDEX 01 131:01:13
  TRACK 528 AUDIO
    TITLE "02:11:14.93646"
    PERFORMER "Владимир Михайлович Зазнобин. Видеоархив"
    INDEX 01 131:14:70
  TRACK 529 AUDIO
    TITLE "02:11:28.42254"
    PERFORMER "Владимир Михайлович Зазнобин. Видеоархив"
    INDEX 01 131:28:32
  TRACK 530 AUDIO
    TITLE "02:11:43.11698"
    PERFORMER "Владимир Михайлович Зазнобин. Видеоархив"
    INDEX 01 131:43:09
  TRACK 531 AUDIO
    TITLE "02:11:56.85197"
    PERFORMER "Владимир Михайлович Зазнобин. Видеоархив"
    INDEX 01 131:56:64
  TRACK 532 AUDIO
    TITLE "02:12:13.48481"
    PERFORMER "Владимир Михайлович Зазнобин. Видеоархив"
    INDEX 01 132:13:36
  TRACK 533 AUDIO
    TITLE "02:12:28.87540"
    PERFORMER "Владимир Михайлович Зазнобин. Видеоархив"
    INDEX 01 132:28:66
  TRACK 534 AUDIO
    TITLE "02:12:43.07757"
    PERFORMER "Владимир Михайлович Зазнобин. Видеоархив"
    INDEX 01 132:43:06
  TRACK 535 AUDIO
    TITLE "02:12:58.95764"
    PERFORMER "Владимир Михайлович Зазнобин. Видеоархив"
    INDEX 01 132:58:72
  TRACK 536 AUDIO
    TITLE "02:13:13.94696"
    PERFORMER "Владимир Михайлович Зазнобин. Видеоархив"
    INDEX 01 133:13:71
  TRACK 537 AUDIO
    TITLE "02:13:30.14932"
    PERFORMER "Владимир Михайлович Зазнобин. Видеоархив"
    INDEX 01 133:30:11
  TRACK 538 AUDIO
    TITLE "02:13:44.48989"
    PERFORMER "Владимир Михайлович Зазнобин. Видеоархив"
    INDEX 01 133:44:37
  TRACK 539 AUDIO
    TITLE "02:14:04.66424"
    PERFORMER "Владимир Михайлович Зазнобин. Видеоархив"
    INDEX 01 134:04:50
  TRACK 540 AUDIO
    TITLE "02:14:21.63982"
    PERFORMER "Владимир Михайлович Зазнобин. Видеоархив"
    INDEX 01 134:21:48
  TRACK 541 AUDIO
    TITLE "02:14:35.69385"
    PERFORMER "Владимир Михайлович Зазнобин. Видеоархив"
    INDEX 01 134:35:52
  TRACK 542 AUDIO
    TITLE "02:14:50.35020"
    PERFORMER "Владимир Михайлович Зазнобин. Видеоархив"
    INDEX 01 134:50:26
  TRACK 543 AUDIO
    TITLE "02:15:04.54356"
    PERFORMER "Владимир Михайлович Зазнобин. Видеоархив"
    INDEX 01 135:04:41
  TRACK 544 AUDIO
    TITLE "02:15:23.00104"
    PERFORMER "Владимир Михайлович Зазнобин. Видеоархив"
    INDEX 01 135:23:00
  TRACK 545 AUDIO
    TITLE "02:15:36.71236"
    PERFORMER "Владимир Михайлович Зазнобин. Видеоархив"
    INDEX 01 135:36:53
  TRACK 546 AUDIO
    TITLE "02:15:50.59224"
    PERFORMER "Владимир Михайлович Зазнобин. Видеоархив"
    INDEX 01 135:50:44
  TRACK 547 AUDIO
    TITLE "02:16:05.25741"
    PERFORMER "Владимир Михайлович Зазнобин. Видеоархив"
    INDEX 01 136:05:19
  TRACK 548 AUDIO
    TITLE "02:16:19.14288"
    PERFORMER "Владимир Михайлович Зазнобин. Видеоархив"
    INDEX 01 136:19:11
  TRACK 549 AUDIO
    TITLE "02:16:33.21086"
    PERFORMER "Владимир Михайлович Зазнобин. Видеоархив"
    INDEX 01 136:33:16
  TRACK 550 AUDIO
    TITLE "02:18:27.69909"
    PERFORMER "Владимир Михайлович Зазнобин. Видеоархив"
    INDEX 01 138:27:52
